<?xml version="1.0" encoding="UTF-8"?>
<!DOCTYPE svg PUBLIC "-//W3C//DTD SVG 1.1//EN" "http://www.w3.org/Graphics/SVG/1.1/DTD/svg11.dtd">
<!-- Creator: CorelDRAW -->
<svg xmlns="http://www.w3.org/2000/svg" xml:space="preserve" width="1500px" height="753px" style="shape-rendering:geometricPrecision; text-rendering:geometricPrecision; image-rendering:optimizeQuality; fill-rule:evenodd; clip-rule:evenodd"
viewBox="0 0 1500 753"
 xmlns:xlink="http://www.w3.org/1999/xlink">
 <defs>
  <style type="text/css">
   <![CDATA[
    .fil2 {fill:#1F1A17;fill-rule:nonzero}
    .fil1 {fill:#001E50;fill-rule:nonzero}
    .fil0 {fill:url(#id0)}
   ]]>
  </style>
  <linearGradient id="id0" gradientUnits="userSpaceOnUse" x1="718.14" y1="741.406" x2="-11.6732" y2="11.5945">
   <stop offset="0" style="stop-color:#0FB0F7"/>
   <stop offset="1" style="stop-color:#43FFA4"/>
  </linearGradient>
 </defs>
 <g id="Layer_x0020_1">
  <metadata id="CorelCorpID_0Corel-Layer"/>
  <g id="_85595360">
   <polygon id="_85595768" class="fil0" points="706.467,315.165 490.071,289.642 395.839,-0.0787402 302.742,287.87 0,287.87 244.781,466.276 151.106,753.079 397.913,573.11 588.043,680.884 397.602,505.5 256.053,608.581 309.49,444.711 170.524,342.878 341.87,343.085 396.459,178.587 452.4,344.961 "/>
   <polygon id="_85596272" class="fil1" points="479.817,417.037 479.817,389.348 604.833,389.348 604.833,417.037 559.372,417.037 559.372,525.317 525.484,525.317 525.484,417.037 "/>
   <path id="_855962721" class="fil1" d="M723.031 511.266c-6.33661,5.50984 -13.7421,9.91929 -22.2146,13.2244 -8.47244,3.30709 -17.8051,4.95866 -27.998,4.95866 -11.435,0 -21.5945,-2.10039 -30.4803,-6.30118 -8.88583,-4.20276 -15.7736,-10.1949 -20.6634,-17.9783 -4.89173,-7.78346 -7.33661,-16.8406 -7.33661,-27.1732 0,-10.4685 2.54921,-19.9744 7.64567,-28.5157 5.09646,-8.54134 12.124,-15.2579 21.0768,-20.1476 8.95472,-4.88976 18.9429,-7.33661 29.9626,-7.33661 9.6437,0 18.1516,1.89567 25.5217,5.68307 7.37008,3.78937 13.1201,9.05906 17.2539,15.8091 4.13189,6.75 6.19882,14.5335 6.19882,23.3504 0,6.6122 -1.10236,12.4665 -3.30512,17.563l-71.2913 0c1.92913,6.47441 5.64764,11.3996 11.1575,14.7756 5.51181,3.37402 12.6063,5.06299 21.2854,5.06299 10.6063,0 21.2835,-3.10039 32.0276,-9.29921l11.1594 16.3248zm-50.2126 -66.7441c-5.64961,0 -10.8504,1.54921 -15.6024,4.64764 -4.75197,3.10039 -8.09252,7.6122 -10.0217,13.5354l46.2874 0c-0.688976,-5.50984 -2.8248,-9.91929 -6.40551,-13.2244 -3.58268,-3.30709 -8.33465,-4.95866 -14.2579,-4.95866z"/>
   <path id="_8559627212" class="fil1" d="M790.809 529.449c-10.7461,0 -20.25,-2.16929 -28.5157,-6.50787 -8.26575,-4.34055 -14.6713,-10.3661 -19.2185,-18.0807 -4.54528,-7.71457 -6.8189,-16.6004 -6.8189,-26.6575 0,-10.8819 2.58268,-20.5945 7.75,-29.1358 5.16535,-8.54134 12.122,-15.189 20.8701,-19.9409 8.74803,-4.75197 18.4252,-7.12992 29.0335,-7.12992 5.50984,0 11.3996,0.724409 17.6673,2.17126 6.26772,1.44685 11.9508,3.47835 17.0472,6.09449l0 28.1043c-4.26969,-3.16929 -9.09252,-5.68307 -14.4646,-7.54331 -5.37205,-1.86024 -10.6772,-2.78937 -15.9114,-2.78937 -8.54134,0 -15.4291,2.44488 -20.6634,7.33661 -5.23622,4.88976 -7.85236,11.3307 -7.85236,19.3209 0,8.40354 2.47835,15.0492 7.43898,19.9409 4.95866,4.88976 11.7087,7.33465 20.25,7.33465 4.40945,0 9.09252,-0.826772 14.0512,-2.48031 4.96063,-1.65157 9.5748,-3.8563 13.8465,-6.6122l11.9843 18.185c-5.92323,5.64764 -13.0177,10.126 -21.2835,13.4311 -8.26575,3.30709 -16.6693,4.95866 -25.2106,4.95866z"/>
   <path id="_85596272123" class="fil1" d="M920.992 422.823c11.0217,0 20.0453,3.68504 27.0709,11.0551 7.02559,7.37008 10.5374,17.9449 10.5374,31.7205l0 59.7185 -32.6476 0 0 -49.5945c0,-17.0807 -5.9252,-25.622 -17.7717,-25.622 -8.54134,0 -16.0492,4.06299 -22.5236,12.1909l0 63.0256 -32.6496 0 0 -139.276 32.6496 -6.6122 0 58.4783c4.54528,-4.82087 9.95276,-8.53937 16.2205,-11.1575 6.26969,-2.61811 12.6398,-3.92717 19.1142,-3.92717z"/>
   <path id="_855962721234" class="fil1" d="M1040.64 528.417c-11.5728,0 -22.6614,-1.86024 -33.2697,-5.58071 -10.6063,-3.7185 -19.9055,-8.81693 -27.8957,-15.2913l7.85236 -15.0846c16.8071,11.9862 34.6457,17.9783 53.5197,17.9783 10.0571,0 18.0118,-1.8248 23.8661,-5.47638 5.85433,-3.64961 8.78346,-8.6437 8.78346,-14.9803 0,-4.13386 -1.10236,-7.43898 -3.30709,-9.91929 -2.20472,-2.48031 -5.82087,-4.61417 -10.8484,-6.40551 -5.02756,-1.79134 -12.3642,-3.72047 -22.0079,-5.78543 -12.6732,-2.75591 -22.7992,-5.8563 -30.376,-9.29921 -7.57677,-3.44488 -13.1555,-7.57677 -16.7382,-12.3996 -3.58071,-4.82087 -5.37205,-10.6752 -5.37205,-17.563 0,-8.26575 2.37598,-15.6358 7.12992,-22.1102 4.75197,-6.47638 11.3307,-11.4685 19.7343,-14.9823 8.40354,-3.51378 17.9075,-5.26969 28.5157,-5.26969 8.67913,0 17.3917,1.1378 26.1398,3.40945 8.74803,2.27362 16.2894,5.40748 22.628,9.40157l0 20.872c-7.02756,-5.09843 -14.6043,-8.99016 -22.7303,-11.6752 -8.12795,-2.68701 -16.4626,-4.02953 -25.0039,-4.02953 -10.3327,0 -18.7362,1.92913 -25.2106,5.78543 -6.47441,3.85827 -9.7126,9.02362 -9.7126,15.498 0,3.99606 1.27559,7.19882 3.82283,9.60827 2.54921,2.41142 6.47638,4.51181 11.7795,6.30315 5.30315,1.79134 13.3976,3.9252 24.2795,6.40551 11.0217,2.61811 19.9409,5.37205 26.7598,8.26575 6.8189,2.8937 12.1575,6.8189 16.0157,11.7795 3.8563,4.95866 5.78543,11.3642 5.78543,19.2165 0,8.12795 -2.23819,15.3248 -6.71654,21.5945 -4.47638,6.26772 -10.813,11.124 -19.0098,14.5669 -8.19685,3.44488 -17.6693,5.16732 -28.4134,5.16732z"/>
   <polygon id="_8559627212345" class="fil1" points="1122.67,395.341 1143.13,390.795 1143.13,427.163 1179.91,427.163 1179.91,443.695 1143.13,443.488 1143.13,525.317 1122.67,525.317 "/>
   <path id="_85596272123456" class="fil1" d="M1292.74 424.476l0 100.841 -19.8386 0 0 -13.6378c-4.26969,4.82087 -9.50591,8.7126 -15.7047,11.6752 -6.19882,2.96063 -12.8799,4.44291 -20.0433,4.44291 -8.12795,0 -15.6713,-1.99803 -22.628,-5.99409 -6.95669,-3.99409 -12.4665,-9.64173 -16.5295,-16.9429 -4.06496,-7.30118 -6.09646,-15.7736 -6.09646,-25.4173 0,-10.4705 2.44488,-19.872 7.33465,-28.2067 4.89173,-8.33465 11.5039,-14.878 19.8386,-19.6299 8.33465,-4.75394 17.5295,-7.12992 27.5866,-7.12992 8.26575,0 16.8051,1.72244 25.622,5.16732l0 -0.206693 20.4587 -4.96063zm-49.3878 86.1693c5.50984,0 10.815,-1.20472 15.9114,-3.61614 5.09646,-2.41142 9.43701,-5.88976 13.0177,-10.435l0 -47.5276c-8.26575,-5.50984 -16.7382,-8.26575 -25.4154,-8.26575 -6.33858,0 -12.0551,1.44685 -17.1516,4.33858 -5.09646,2.8937 -9.12598,7.09646 -12.0886,12.6063 -2.9626,5.50984 -4.44291,11.9154 -4.44291,19.2165 0,10.1949 2.75591,18.3563 8.26575,24.4882 5.50984,6.12992 12.811,9.19488 21.9035,9.19488z"/>
   <path id="_855962721234567" class="fil1" d="M1384.07 424.89c3.85827,0 7.64567,0.413386 11.3661,1.24016l0 20.4567c-4.13386,-1.51575 -8.40354,-2.27165 -12.811,-2.27165 -7.71457,0 -14.3287,2.06496 -19.8386,6.19882 -5.50984,4.13189 -10.5394,10.6063 -15.0846,19.4232l0 55.3799 -20.4567 0 0 -96.5 19.8366 -4.34055 0 26.4508c4.54724,-8.40354 10.0571,-14.8445 16.5315,-19.3209 6.47441,-4.47835 13.2933,-6.71654 20.4567,-6.71654z"/>
   <path id="_8559627212345678" class="fil1" d="M1457.22 528.417c-9.64173,0 -19.0098,-1.34449 -28.1024,-4.02953 -9.09252,-2.68701 -16.6004,-6.02756 -22.5236,-10.0236l6.40551 -13.2244c5.64764,3.58268 12.4331,6.44094 20.3543,8.57677 7.92126,2.13386 15.7382,3.20276 23.4528,3.20276 7.30118,0 13.122,-1.24016 17.4626,-3.72047 4.33858,-2.48031 6.50787,-5.92323 6.50787,-10.3327 0,-2.61614 -0.895669,-4.75197 -2.68504,-6.40551 -1.79134,-1.65157 -4.58071,-2.99606 -8.37008,-4.02953 -3.7874,-1.03346 -9.26378,-2.16929 -16.4272,-3.40945 -15.2913,-2.47835 -26.3465,-5.8189 -33.1654,-10.0217 -6.8189,-4.20079 -10.2283,-10.7106 -10.2283,-19.5276 0,-9.36811 4.02953,-16.9449 12.0866,-22.7303 8.05906,-5.78543 18.7717,-8.67913 32.1339,-8.67913 7.57677,0 14.9469,0.862205 22.1102,2.58268 7.16339,1.72244 13.3622,3.96063 18.5965,6.71654l0 16.9449c-4.95866,-3.58268 -11.0551,-6.33661 -18.2874,-8.26575 -7.23228,-1.92913 -14.6358,-2.8937 -22.2126,-2.8937 -7.57677,0 -13.6732,1.27559 -18.2874,3.82283 -4.61614,2.54921 -6.92323,5.95866 -6.92323,10.2283 0,3.72047 1.9626,6.50984 5.88976,8.37008 3.9252,1.86024 11.2618,3.61614 22.0059,5.26969 9.6437,1.51378 17.4961,3.34055 23.5571,5.47441 6.06299,2.13583 10.815,5.16732 14.2579,9.09252 3.44488,3.92717 5.16732,9.19685 5.16732,15.8091 0,9.50394 -3.85827,17.0807 -11.5728,22.7303 -7.71457,5.64764 -18.1142,8.47244 -31.2028,8.47244z"/>
   <polygon id="_85595384" class="fil2" points="764.031,572.752 769.967,572.752 768.754,578.543 762.821,578.543 "/>
   <polygon id="_855953841" class="fil2" points="775.921,572.752 781.856,572.752 780.644,578.543 774.711,578.543 "/>
   <polygon id="_8559538412" class="fil2" points="787.811,572.752 793.746,572.752 792.533,578.543 786.6,578.543 "/>
   <path id="_85595384123" class="fil2" d="M813.366 570.185l5.82874 0.940945c-0.964567,2.58858 -2.38386,4.56496 -4.26575,5.91339 -1.87598,1.35433 -4.05906,2.02362 -6.54134,2.02362 -2.82283,0 -5.07087,-0.840551 -6.72441,-2.52362 -1.65551,-1.69094 -2.49016,-4.00787 -2.49016,-6.96063 0,-2.41142 0.507874,-4.68701 1.50591,-6.83268 1.00591,-2.14764 2.51772,-3.83071 4.53543,-5.06496 2.01969,-1.23425 4.23622,-1.85433 6.64764,-1.85433 2.61811,0 4.70669,0.685039 6.26969,2.05512 1.55512,1.3622 2.4311,3.15945 2.63189,5.38386l-5.70669 0.606299c-0.141732,-1.23425 -0.519685,-2.14567 -1.14173,-2.73228 -0.620079,-0.584646 -1.4252,-0.875984 -2.4311,-0.875984 -1.15551,0 -2.24016,0.427165 -3.23819,1.29134 -1.00591,0.862205 -1.77559,2.15354 -2.31102,3.87992 -0.535433,1.7185 -0.805118,3.33071 -0.805118,4.83465 0,1.30512 0.320866,2.3189 0.962598,3.0315 0.641732,0.706693 1.44094,1.06299 2.40354,1.06299 0.962598,0 1.88976,-0.350394 2.7815,-1.04134 0.891732,-0.698819 1.58268,-1.74803 2.08858,-3.1378z"/>
   <path id="_855953841234" class="fil2" d="M822.996 569.329c0,-4.10827 1.16339,-7.38976 3.48031,-9.82874 2.3189,-2.44685 5.37205,-3.67323 9.1437,-3.67323 3.27362,0 5.82677,0.905512 7.66732,2.71063 1.84055,1.80512 2.75984,4.23031 2.75984,7.2815 0,3.59449 -1.14764,6.69685 -3.45079,9.31496 -2.29724,2.62402 -5.37795,3.92913 -9.23622,3.92913 -2.09055,0 -3.93701,-0.413386 -5.55709,-1.25394 -1.6122,-0.834646 -2.81693,-2.01969 -3.61614,-3.55315 -0.791339,-1.52559 -1.19094,-3.17323 -1.19094,-4.92717zm17.0965 -4.2874c0,-1.41929 -0.413386,-2.55315 -1.24803,-3.41535 -0.826772,-0.856299 -1.89764,-1.28346 -3.20276,-1.28346 -1.29724,0 -2.44685,0.399606 -3.45276,1.20472 -0.998031,0.799213 -1.7815,1.96063 -2.33858,3.48819 -0.557087,1.52559 -0.834646,2.9311 -0.834646,4.20669 0,1.59055 0.435039,2.85433 1.29921,3.7874 0.862205,0.927165 1.94685,1.39764 3.25787,1.39764 1.64173,0 3.02559,-0.704724 4.1378,-2.11024 1.58268,-1.99016 2.38189,-4.41535 2.38189,-7.27559z"/>
   <path id="_8559538412345" class="fil2" d="M852.98 556.354l5.68504 0 -0.584646 2.88189c1.41929,-1.22638 2.74606,-2.09646 3.97835,-2.62402 1.23425,-0.521654 2.53346,-0.785433 3.90157,-0.785433 1.82677,0 3.25984,0.527559 4.31496,1.5689 1.04921,1.04921 1.57677,2.43307 1.57677,4.15945 0,0.783465 -0.228346,2.25984 -0.690945,4.42913l-2.6122 12.5591 -5.99803 0 2.63189 -12.6024c0.393701,-1.87598 0.584646,-3.00197 0.584646,-3.36024 0,-0.769685 -0.220472,-1.36811 -0.677165,-1.81102 -0.448819,-0.435039 -1.08268,-0.655512 -1.88976,-0.655512 -0.877953,0 -1.85433,0.370079 -2.92323,1.10433 -1.07874,0.742126 -1.91929,1.72047 -2.53346,2.9252 -0.440945,0.870079 -0.940945,2.63189 -1.50394,5.29134l-1.89764 9.10827 -5.99803 0 4.63583 -22.189z"/>
   <path id="_85595384123456" class="fil2" d="M879.12 556.354l5.68504 0 -0.584646 2.88189c1.41929,-1.22638 2.74606,-2.09646 3.97835,-2.62402 1.23425,-0.521654 2.53346,-0.785433 3.90157,-0.785433 1.82677,0 3.25984,0.527559 4.31496,1.5689 1.04921,1.04921 1.57677,2.43307 1.57677,4.15945 0,0.783465 -0.228346,2.25984 -0.690945,4.42913l-2.6122 12.5591 -5.99803 0 2.63189 -12.6024c0.393701,-1.87598 0.584646,-3.00197 0.584646,-3.36024 0,-0.769685 -0.220472,-1.36811 -0.677165,-1.81102 -0.448819,-0.435039 -1.08268,-0.655512 -1.88976,-0.655512 -0.877953,0 -1.85433,0.370079 -2.92323,1.10433 -1.07874,0.742126 -1.91929,1.72047 -2.53346,2.9252 -0.440945,0.870079 -0.940945,2.63189 -1.50394,5.29134l-1.89764 9.10827 -5.99803 0 4.63583 -22.189z"/>
   <path id="_855953841234567" class="fil2" d="M922.15 569.307l-15.0492 0c-0.0137795,0.23622 -0.0216535,0.42126 -0.0216535,0.541339 0,1.47638 0.42126,2.66732 1.26181,3.5748 0.848425,0.905512 1.87598,1.3622 3.08858,1.3622 1.99016,0 3.54528,-1.03543 4.65748,-3.09646l5.37008 0.899606c-1.04724,2.15945 -2.43898,3.77953 -4.19291,4.8563 -1.74803,1.08465 -3.70866,1.61811 -5.87795,1.61811 -2.98031,0 -5.40551,-0.940945 -7.27362,-2.83071 -1.8622,-1.88189 -2.79724,-4.37992 -2.79724,-7.48819 0,-3.03937 0.84252,-5.74213 2.52559,-8.11024 2.29724,-3.20276 5.57677,-4.80709 9.84252,-4.80709 2.71654,0 4.87795,0.84252 6.47638,2.51772 1.60433,1.68307 2.40354,4.02953 2.40354,7.05512 0,1.44685 -0.135827,2.75197 -0.413386,3.90748zm-5.05709 -3.65945c0.0137795,-0.26378 0.0137795,-0.462598 0.0137795,-0.606299 0,-1.63976 -0.364173,-2.87402 -1.10433,-3.69291 -0.73622,-0.820866 -1.72638,-1.23425 -2.9685,-1.23425 -1.24016,0 -2.34646,0.462598 -3.33071,1.39764 -0.984252,0.935039 -1.64764,2.31693 -1.99606,4.13583l9.38583 0z"/>
   <path id="_8559538412345678" class="fil2" d="M939.388 570.185l5.82874 0.940945c-0.964567,2.58858 -2.38386,4.56496 -4.26575,5.91339 -1.87598,1.35433 -4.05906,2.02362 -6.54134,2.02362 -2.82283,0 -5.07087,-0.840551 -6.72441,-2.52362 -1.65551,-1.69094 -2.49016,-4.00787 -2.49016,-6.96063 0,-2.41142 0.507874,-4.68701 1.50591,-6.83268 1.00591,-2.14764 2.51772,-3.83071 4.53543,-5.06496 2.01969,-1.23425 4.23622,-1.85433 6.64764,-1.85433 2.61811,0 4.70669,0.685039 6.26969,2.05512 1.55512,1.3622 2.4311,3.15945 2.63189,5.38386l-5.70669 0.606299c-0.141732,-1.23425 -0.519685,-2.14567 -1.14173,-2.73228 -0.620079,-0.584646 -1.4252,-0.875984 -2.4311,-0.875984 -1.15551,0 -2.24016,0.427165 -3.23819,1.29134 -1.00591,0.862205 -1.77559,2.15354 -2.31102,3.87992 -0.535433,1.7185 -0.805118,3.33071 -0.805118,4.83465 0,1.30512 0.320866,2.3189 0.962598,3.0315 0.641732,0.706693 1.44094,1.06299 2.40354,1.06299 0.962598,0 1.88976,-0.350394 2.7815,-1.04134 0.891732,-0.698819 1.58268,-1.74803 2.08858,-3.1378z"/>
   <path id="_85595384123456789" class="fil2" d="M949.646 560.805l0.919291 -4.45079 2.9252 0 0.734252 -3.55118 6.87598 -4.13583 -1.6122 7.68701 3.65945 0 -0.92126 4.45079 -3.67913 0 -1.94094 9.29331c-0.348425,1.69094 -0.519685,2.64567 -0.519685,2.88976 0,0.454724 0.141732,0.812992 0.435039,1.07677 0.291339,0.255906 0.818898,0.383858 1.59055,0.383858 0.26378,0 0.927165,-0.0492126 1.98228,-0.149606l-0.940945 4.45079c-1.02756,0.214567 -2.09055,0.312992 -3.1752,0.312992 -2.11811,0 -3.65748,-0.405512 -4.62008,-1.2185 -0.956693,-0.812992 -1.44094,-1.94685 -1.44094,-3.39567 0,-0.685039 0.255906,-2.25984 0.777559,-4.72047l1.85433 -8.92323 -2.90354 0z"/>
   <path id="_8559538412345678910" class="fil2" d="M968.789 547.909l5.99803 0 -1.13386 5.43504 -5.99213 0 1.12795 -5.43504zm-1.75591 8.44488l5.99213 0 -4.63583 22.189 -5.99803 0 4.64173 -22.189z"/>
   <path id="_855953841234567891011" class="fil2" d="M979.002 556.354l5.68504 0 -0.584646 2.88189c1.41929,-1.22638 2.74606,-2.09646 3.97835,-2.62402 1.23425,-0.521654 2.53346,-0.785433 3.90157,-0.785433 1.82677,0 3.25984,0.527559 4.31496,1.5689 1.04921,1.04921 1.57677,2.43307 1.57677,4.15945 0,0.783465 -0.228346,2.25984 -0.690945,4.42913l-2.6122 12.5591 -5.99803 0 2.63189 -12.6024c0.393701,-1.87598 0.584646,-3.00197 0.584646,-3.36024 0,-0.769685 -0.220472,-1.36811 -0.677165,-1.81102 -0.448819,-0.435039 -1.08268,-0.655512 -1.88976,-0.655512 -0.877953,0 -1.85433,0.370079 -2.92323,1.10433 -1.07874,0.742126 -1.91929,1.72047 -2.53346,2.9252 -0.440945,0.870079 -0.940945,2.63189 -1.50394,5.29134l-1.89764 9.10827 -5.99803 0 4.63583 -22.189z"/>
   <path id="_85595384123456789101112" class="fil2" d="M1000.11 579.713l6.33465 0.92126c0,0.641732 0.106299,1.12598 0.312992,1.45472 0.206693,0.320866 0.549213,0.606299 1.01181,0.834646 0.464567,0.228346 1.1063,0.34252 1.91142,0.34252 1.26969,0 2.28346,-0.25 3.05315,-0.75 0.570866,-0.391732 1.03543,-1.01969 1.39764,-1.88189 0.222441,-0.543307 0.507874,-1.72638 0.856299,-3.55315l0.214567 -1.04724c-2.07677,1.73228 -4.22244,2.59449 -6.44094,2.59449 -2.16732,0 -3.95079,-0.769685 -5.34843,-2.30315 -1.39173,-1.52559 -2.09055,-3.77165 -2.09055,-6.72441 0,-2.60433 0.478346,-4.99409 1.41929,-7.16929 0.948819,-2.16732 2.28346,-3.81496 3.99409,-4.92717 1.7126,-1.11417 3.45866,-1.67717 5.24213,-1.67717 1.47638,0 2.83071,0.391732 4.05906,1.16929 1.22638,0.785433 2.1752,1.87598 2.86024,3.2815l0.832677 -3.92323 5.62205 0 -3.84449 18.4882c-0.627953,2.96654 -1.15551,5.08465 -1.58465,6.35433 -0.435039,1.26969 -0.927165,2.27559 -1.48228,3.0315 -0.557087,0.748031 -1.26378,1.38386 -2.1122,1.88976 -0.848425,0.505906 -1.85433,0.875984 -3.00984,1.09843 -1.15551,0.220472 -2.40945,0.334646 -3.75787,0.334646 -3.1378,0 -5.50591,-0.535433 -7.11024,-1.6122 -1.59843,-1.0689 -2.39764,-2.85236 -2.39764,-5.34843 0,-0.26378 0.0137795,-0.557087 0.0570866,-0.877953zm7.0689 -10.7185c0,1.68307 0.377953,2.97244 1.13386,3.85827 0.761811,0.883858 1.71063,1.32677 2.85236,1.32677 1.04921,0 2.06102,-0.399606 3.03937,-1.19094 0.984252,-0.799213 1.74016,-1.92717 2.25984,-3.3878 0.521654,-1.4626 0.785433,-2.87598 0.785433,-4.24409 0,-1.5689 -0.429134,-2.83858 -1.27756,-3.80118 -0.848425,-0.964567 -1.83268,-1.44094 -2.94488,-1.44094 -1.07677,0 -2.06102,0.427165 -2.96063,1.27559 -0.897638,0.848425 -1.63976,2.15354 -2.22441,3.92323 -0.442913,1.37008 -0.663386,2.59646 -0.663386,3.6811z"/>
   <path id="_8559538412345678910111213" class="fil2" d="M1038.14 579.713l6.33465 0.92126c0,0.641732 0.106299,1.12598 0.312992,1.45472 0.206693,0.320866 0.549213,0.606299 1.01181,0.834646 0.464567,0.228346 1.1063,0.34252 1.91142,0.34252 1.26969,0 2.28346,-0.25 3.05315,-0.75 0.570866,-0.391732 1.03543,-1.01969 1.39764,-1.88189 0.222441,-0.543307 0.507874,-1.72638 0.856299,-3.55315l0.214567 -1.04724c-2.07677,1.73228 -4.22244,2.59449 -6.44094,2.59449 -2.16732,0 -3.95079,-0.769685 -5.34843,-2.30315 -1.39173,-1.52559 -2.09055,-3.77165 -2.09055,-6.72441 0,-2.60433 0.478346,-4.99409 1.41929,-7.16929 0.948819,-2.16732 2.28346,-3.81496 3.99409,-4.92717 1.7126,-1.11417 3.45866,-1.67717 5.24213,-1.67717 1.47638,0 2.83071,0.391732 4.05906,1.16929 1.22638,0.785433 2.1752,1.87598 2.86024,3.2815l0.832677 -3.92323 5.62205 0 -3.84449 18.4882c-0.627953,2.96654 -1.15551,5.08465 -1.58465,6.35433 -0.435039,1.26969 -0.927165,2.27559 -1.48228,3.0315 -0.557087,0.748031 -1.26378,1.38386 -2.1122,1.88976 -0.848425,0.505906 -1.85433,0.875984 -3.00984,1.09843 -1.15551,0.220472 -2.40945,0.334646 -3.75787,0.334646 -3.1378,0 -5.50591,-0.535433 -7.11024,-1.6122 -1.59843,-1.0689 -2.39764,-2.85236 -2.39764,-5.34843 0,-0.26378 0.0137795,-0.557087 0.0570866,-0.877953zm7.0689 -10.7185c0,1.68307 0.377953,2.97244 1.13386,3.85827 0.761811,0.883858 1.71063,1.32677 2.85236,1.32677 1.04921,0 2.06102,-0.399606 3.03937,-1.19094 0.984252,-0.799213 1.74016,-1.92717 2.25984,-3.3878 0.521654,-1.4626 0.785433,-2.87598 0.785433,-4.24409 0,-1.5689 -0.429134,-2.83858 -1.27756,-3.80118 -0.848425,-0.964567 -1.83268,-1.44094 -2.94488,-1.44094 -1.07677,0 -2.06102,0.427165 -2.96063,1.27559 -0.897638,0.848425 -1.63976,2.15354 -2.22441,3.92323 -0.442913,1.37008 -0.663386,2.59646 -0.663386,3.6811z"/>
   <path id="_855953841234567891011121314" class="fil2" d="M1068.9 556.354l5.59843 0 -0.897638 4.30118c2.08858,-3.21654 4.35039,-4.82874 6.78937,-4.82874 0.862205,0 1.78937,0.222441 2.7815,0.649606l-2.30315 4.91339c-0.543307,-0.198819 -1.12008,-0.291339 -1.73425,-0.291339 -1.02756,0 -2.0748,0.383858 -3.14567,1.16929 -1.06102,0.777559 -1.89567,1.8189 -2.49606,3.12402 -0.598425,1.29724 -1.19094,3.36614 -1.77559,6.19094l-1.4626 6.96063 -5.99803 0 4.6437 -22.189z"/>
   <path id="_85595384123456789101112131415" class="fil2" d="M1102.85 569.307l-15.0492 0c-0.0137795,0.23622 -0.0216535,0.42126 -0.0216535,0.541339 0,1.47638 0.42126,2.66732 1.26181,3.5748 0.848425,0.905512 1.87598,1.3622 3.08858,1.3622 1.99016,0 3.54528,-1.03543 4.65748,-3.09646l5.37008 0.899606c-1.04724,2.15945 -2.43898,3.77953 -4.19291,4.8563 -1.74803,1.08465 -3.70866,1.61811 -5.87795,1.61811 -2.98031,0 -5.40551,-0.940945 -7.27362,-2.83071 -1.8622,-1.88189 -2.79724,-4.37992 -2.79724,-7.48819 0,-3.03937 0.84252,-5.74213 2.52559,-8.11024 2.29724,-3.20276 5.57677,-4.80709 9.84252,-4.80709 2.71654,0 4.87795,0.84252 6.47638,2.51772 1.60433,1.68307 2.40354,4.02953 2.40354,7.05512 0,1.44685 -0.135827,2.75197 -0.413386,3.90748zm-5.05709 -3.65945c0.0137795,-0.26378 0.0137795,-0.462598 0.0137795,-0.606299 0,-1.63976 -0.364173,-2.87402 -1.10433,-3.69291 -0.73622,-0.820866 -1.72638,-1.23425 -2.9685,-1.23425 -1.24016,0 -2.34646,0.462598 -3.33071,1.39764 -0.984252,0.935039 -1.64764,2.31693 -1.99606,4.13583l9.38583 0z"/>
   <path id="_8559538412345678910111213141516" class="fil2" d="M1113.51 562.638l-5.85433 -0.498031c0.669291,-1.97638 1.83858,-3.52362 3.50197,-4.63583 1.66732,-1.11417 3.87205,-1.67717 6.61024,-1.67717 2.86024,0 4.97244,0.57874 6.33465,1.72638 1.36811,1.14764 2.04724,2.55315 2.04724,4.20866 0,0.669291 -0.0570866,1.38386 -0.179134,2.13189 -0.114173,0.755906 -0.527559,2.73228 -1.24213,5.93307 -0.584646,2.64764 -0.875984,4.50197 -0.875984,5.56496 0,0.940945 0.163386,1.99606 0.498031,3.15157l-5.82677 0c-0.234252,-0.805118 -0.383858,-1.63976 -0.440945,-2.50984 -0.877953,0.976378 -1.88386,1.72441 -3.02559,2.24606 -1.14764,0.527559 -2.29528,0.783465 -3.45079,0.783465 -1.84055,0 -3.36024,-0.598425 -4.55709,-1.80315 -1.19094,-1.20472 -1.79134,-2.75394 -1.79134,-4.64961 0,-2.12008 0.65748,-3.80906 1.9685,-5.07874 1.32087,-1.26969 3.67323,-2.03346 7.05512,-2.29724 2.85827,-0.234252 4.76378,-0.519685 5.72638,-0.856299 0.25,-0.840551 0.377953,-1.50394 0.377953,-2.00984 0,-0.635827 -0.26378,-1.17717 -0.777559,-1.6063 -0.51378,-0.435039 -1.27559,-0.647638 -2.29724,-0.647638 -1.0689,0 -1.91732,0.220472 -2.5374,0.655512 -0.622047,0.442913 -1.04134,1.06299 -1.26378,1.86811zm5.70669 5.56299c-0.364173,0.0944882 -0.848425,0.187008 -1.44882,0.271654 -3.00197,0.364173 -4.97047,0.891732 -5.88976,1.59055 -0.65748,0.5 -0.978346,1.17717 -0.978346,2.02559 0,0.690945 0.25,1.28346 0.75,1.76181 0.498031,0.484252 1.16142,0.720472 1.98228,0.720472 0.905512,0 1.76181,-0.214567 2.56102,-0.655512 0.805118,-0.435039 1.40354,-1.00591 1.79724,-1.69094 0.399606,-0.692913 0.748031,-1.76969 1.05512,-3.23031l0.17126 -0.793307z"/>
   <path id="_855953841234567891011121314151617" class="fil2" d="M1130.35 560.805l0.919291 -4.45079 2.9252 0 0.734252 -3.55118 6.87598 -4.13583 -1.6122 7.68701 3.65945 0 -0.92126 4.45079 -3.67913 0 -1.94094 9.29331c-0.348425,1.69094 -0.519685,2.64567 -0.519685,2.88976 0,0.454724 0.141732,0.812992 0.435039,1.07677 0.291339,0.255906 0.818898,0.383858 1.59055,0.383858 0.26378,0 0.927165,-0.0492126 1.98228,-0.149606l-0.940945 4.45079c-1.02756,0.214567 -2.09055,0.312992 -3.1752,0.312992 -2.11811,0 -3.65748,-0.405512 -4.62008,-1.2185 -0.956693,-0.812992 -1.44094,-1.94685 -1.44094,-3.39567 0,-0.685039 0.255906,-2.25984 0.777559,-4.72047l1.85433 -8.92323 -2.90354 0z"/>
   <path id="_85595384123456789101112131415161718" class="fil2" d="M1156.49 560.805l0.919291 -4.45079 2.9252 0 0.734252 -3.55118 6.87598 -4.13583 -1.6122 7.68701 3.65945 0 -0.92126 4.45079 -3.67913 0 -1.94094 9.29331c-0.348425,1.69094 -0.519685,2.64567 -0.519685,2.88976 0,0.454724 0.141732,0.812992 0.435039,1.07677 0.291339,0.255906 0.818898,0.383858 1.59055,0.383858 0.26378,0 0.927165,-0.0492126 1.98228,-0.149606l-0.940945 4.45079c-1.02756,0.214567 -2.09055,0.312992 -3.1752,0.312992 -2.11811,0 -3.65748,-0.405512 -4.62008,-1.2185 -0.956693,-0.812992 -1.44094,-1.94685 -1.44094,-3.39567 0,-0.685039 0.255906,-2.25984 0.777559,-4.72047l1.85433 -8.92323 -2.90354 0z"/>
   <path id="_8559538412345678910111213141516171819" class="fil2" d="M1190.85 569.307l-15.0492 0c-0.0137795,0.23622 -0.0216535,0.42126 -0.0216535,0.541339 0,1.47638 0.42126,2.66732 1.26181,3.5748 0.848425,0.905512 1.87598,1.3622 3.08858,1.3622 1.99016,0 3.54528,-1.03543 4.65748,-3.09646l5.37008 0.899606c-1.04724,2.15945 -2.43898,3.77953 -4.19291,4.8563 -1.74803,1.08465 -3.70866,1.61811 -5.87795,1.61811 -2.98031,0 -5.40551,-0.940945 -7.27362,-2.83071 -1.8622,-1.88189 -2.79724,-4.37992 -2.79724,-7.48819 0,-3.03937 0.84252,-5.74213 2.52559,-8.11024 2.29724,-3.20276 5.57677,-4.80709 9.84252,-4.80709 2.71654,0 4.87795,0.84252 6.47638,2.51772 1.60433,1.68307 2.40354,4.02953 2.40354,7.05512 0,1.44685 -0.135827,2.75197 -0.413386,3.90748zm-5.05709 -3.65945c0.0137795,-0.26378 0.0137795,-0.462598 0.0137795,-0.606299 0,-1.63976 -0.364173,-2.87402 -1.10433,-3.69291 -0.73622,-0.820866 -1.72638,-1.23425 -2.9685,-1.23425 -1.24016,0 -2.34646,0.462598 -3.33071,1.39764 -0.984252,0.935039 -1.64764,2.31693 -1.99606,4.13583l9.38583 0z"/>
   <path id="_855953841234567891011121314151617181920" class="fil2" d="M1208.08 570.185l5.82874 0.940945c-0.964567,2.58858 -2.38386,4.56496 -4.26575,5.91339 -1.87598,1.35433 -4.05906,2.02362 -6.54134,2.02362 -2.82283,0 -5.07087,-0.840551 -6.72441,-2.52362 -1.65551,-1.69094 -2.49016,-4.00787 -2.49016,-6.96063 0,-2.41142 0.507874,-4.68701 1.50591,-6.83268 1.00591,-2.14764 2.51772,-3.83071 4.53543,-5.06496 2.01969,-1.23425 4.23622,-1.85433 6.64764,-1.85433 2.61811,0 4.70669,0.685039 6.26969,2.05512 1.55512,1.3622 2.4311,3.15945 2.63189,5.38386l-5.70669 0.606299c-0.141732,-1.23425 -0.519685,-2.14567 -1.14173,-2.73228 -0.620079,-0.584646 -1.4252,-0.875984 -2.4311,-0.875984 -1.15551,0 -2.24016,0.427165 -3.23819,1.29134 -1.00591,0.862205 -1.77559,2.15354 -2.31102,3.87992 -0.535433,1.7185 -0.805118,3.33071 -0.805118,4.83465 0,1.30512 0.320866,2.3189 0.962598,3.0315 0.641732,0.706693 1.44094,1.06299 2.40354,1.06299 0.962598,0 1.88976,-0.350394 2.7815,-1.04134 0.891732,-0.698819 1.58268,-1.74803 2.08858,-3.1378z"/>
   <path id="_85595384123456789101112131415161718192021" class="fil2" d="M1222.92 578.543l-5.99803 0 6.41142 -30.6339 5.99803 0 -2.29528 10.9055c1.34646,-1.05512 2.61024,-1.8189 3.77953,-2.2815 1.16929,-0.470472 2.4252,-0.706693 3.76575,-0.706693 1.78937,0 3.21654,0.521654 4.25787,1.54724 1.04921,1.03543 1.5689,2.38386 1.5689,4.05906 0,0.891732 -0.192913,2.26772 -0.584646,4.13583l-2.71654 12.9744 -5.99803 0 2.7815 -13.2303c0.291339,-1.43307 0.435039,-2.35433 0.435039,-2.75394 0,-0.740157 -0.228346,-1.33268 -0.685039,-1.77559 -0.464567,-0.448819 -1.09252,-0.669291 -1.88386,-0.669291 -1.00591,0 -1.96063,0.348425 -2.88189,1.04134 -1.19685,0.919291 -2.11024,2.05315 -2.73819,3.3878 -0.348425,0.742126 -0.805118,2.47441 -1.37598,5.20669l-1.84055 8.79331z"/>
   <path id="_8559538412345678910111213141516171819202122" class="fil2" d="M1276.48 569.307l-15.0492 0c-0.0137795,0.23622 -0.0216535,0.42126 -0.0216535,0.541339 0,1.47638 0.42126,2.66732 1.26181,3.5748 0.848425,0.905512 1.87598,1.3622 3.08858,1.3622 1.99016,0 3.54528,-1.03543 4.65748,-3.09646l5.37008 0.899606c-1.04724,2.15945 -2.43898,3.77953 -4.19291,4.8563 -1.74803,1.08465 -3.70866,1.61811 -5.87795,1.61811 -2.98031,0 -5.40551,-0.940945 -7.27362,-2.83071 -1.8622,-1.88189 -2.79724,-4.37992 -2.79724,-7.48819 0,-3.03937 0.84252,-5.74213 2.52559,-8.11024 2.29724,-3.20276 5.57677,-4.80709 9.84252,-4.80709 2.71654,0 4.87795,0.84252 6.47638,2.51772 1.60433,1.68307 2.40354,4.02953 2.40354,7.05512 0,1.44685 -0.135827,2.75197 -0.413386,3.90748zm-5.05709 -3.65945c0.0137795,-0.26378 0.0137795,-0.462598 0.0137795,-0.606299 0,-1.63976 -0.364173,-2.87402 -1.10433,-3.69291 -0.73622,-0.820866 -1.72638,-1.23425 -2.9685,-1.23425 -1.24016,0 -2.34646,0.462598 -3.33071,1.39764 -0.984252,0.935039 -1.64764,2.31693 -1.99606,4.13583l9.38583 0z"/>
   <path id="_855953841234567891011121314151617181920212223" class="fil2" d="M1283.39 556.354l5.68504 0 -0.584646 2.88189c1.41929,-1.22638 2.74606,-2.09646 3.97835,-2.62402 1.23425,-0.521654 2.53346,-0.785433 3.90157,-0.785433 1.82677,0 3.25984,0.527559 4.31496,1.5689 1.04921,1.04921 1.57677,2.43307 1.57677,4.15945 0,0.783465 -0.228346,2.25984 -0.690945,4.42913l-2.6122 12.5591 -5.99803 0 2.63189 -12.6024c0.393701,-1.87598 0.584646,-3.00197 0.584646,-3.36024 0,-0.769685 -0.220472,-1.36811 -0.677165,-1.81102 -0.448819,-0.435039 -1.08268,-0.655512 -1.88976,-0.655512 -0.877953,0 -1.85433,0.370079 -2.92323,1.10433 -1.07874,0.742126 -1.91929,1.72047 -2.53346,2.9252 -0.440945,0.870079 -0.940945,2.63189 -1.50394,5.29134l-1.89764 9.10827 -5.99803 0 4.63583 -22.189z"/>
   <path id="_85595384123456789101112131415161718192021222324" class="fil2" d="M1306.31 560.805l0.919291 -4.45079 2.9252 0 0.734252 -3.55118 6.87598 -4.13583 -1.6122 7.68701 3.65945 0 -0.92126 4.45079 -3.67913 0 -1.94094 9.29331c-0.348425,1.69094 -0.519685,2.64567 -0.519685,2.88976 0,0.454724 0.141732,0.812992 0.435039,1.07677 0.291339,0.255906 0.818898,0.383858 1.59055,0.383858 0.26378,0 0.927165,-0.0492126 1.98228,-0.149606l-0.940945 4.45079c-1.02756,0.214567 -2.09055,0.312992 -3.1752,0.312992 -2.11811,0 -3.65748,-0.405512 -4.62008,-1.2185 -0.956693,-0.812992 -1.44094,-1.94685 -1.44094,-3.39567 0,-0.685039 0.255906,-2.25984 0.777559,-4.72047l1.85433 -8.92323 -2.90354 0z"/>
   <path id="_8559538412345678910111213141516171819202122232425" class="fil2" d="M1325.14 578.543l-5.99803 0 6.41142 -30.6339 5.99803 0 -2.29528 10.9055c1.34646,-1.05512 2.61024,-1.8189 3.77953,-2.2815 1.16929,-0.470472 2.4252,-0.706693 3.76575,-0.706693 1.78937,0 3.21654,0.521654 4.25787,1.54724 1.04921,1.03543 1.5689,2.38386 1.5689,4.05906 0,0.891732 -0.192913,2.26772 -0.584646,4.13583l-2.71654 12.9744 -5.99803 0 2.7815 -13.2303c0.291339,-1.43307 0.435039,-2.35433 0.435039,-2.75394 0,-0.740157 -0.228346,-1.33268 -0.685039,-1.77559 -0.464567,-0.448819 -1.09252,-0.669291 -1.88386,-0.669291 -1.00591,0 -1.96063,0.348425 -2.88189,1.04134 -1.19685,0.919291 -2.11024,2.05315 -2.73819,3.3878 -0.348425,0.742126 -0.805118,2.47441 -1.37598,5.20669l-1.84055 8.79331z"/>
   <path id="_855953841234567891011121314151617181920212223242526" class="fil2" d="M1349.8 556.354l5.99803 0 -2.74016 13.1378c-0.334646,1.57677 -0.505906,2.56102 -0.505906,2.95276 0,0.635827 0.242126,1.19094 0.712598,1.64764 0.478346,0.456693 1.07677,0.692913 1.8189,0.692913 0.527559,0 1.04921,-0.108268 1.5689,-0.307087 0.51378,-0.200787 1.04134,-0.505906 1.58465,-0.92126 0.549213,-0.405512 1.03346,-0.875984 1.46063,-1.40354 0.435039,-0.535433 0.84252,-1.22835 1.2126,-2.09055 0.26378,-0.641732 0.557087,-1.69094 0.856299,-3.1378l2.2185 -10.5709 5.99803 0 -4.6437 22.189 -5.59843 0 0.627953 -3.00984c-2.45276,2.35433 -5.12008,3.52953 -8.00197,3.52953 -1.82677,0 -3.25984,-0.519685 -4.30118,-1.56102 -1.04921,-1.04921 -1.5689,-2.44685 -1.5689,-4.20079 0,-0.769685 0.23622,-2.29724 0.706693,-4.57874l2.59646 -12.3681z"/>
   <path id="_85595384123456789101112131415161718192021222324252627" class="fil2" d="M1370.57 572.339l5.80709 -0.92126c0.519685,1.22835 1.15354,2.09055 1.9252,2.60433 0.761811,0.505906 1.81102,0.76378 3.12992,0.76378 1.37008,0 2.46063,-0.307087 3.2815,-0.92126 0.570866,-0.42126 0.856299,-0.927165 0.856299,-1.52559 0,-0.40748 -0.143701,-0.769685 -0.435039,-1.08465 -0.307087,-0.307087 -1.13386,-0.685039 -2.49016,-1.13386 -3.62205,-1.19882 -5.8622,-2.13976 -6.72441,-2.83858 -1.3563,-1.08465 -2.02559,-2.50984 -2.02559,-4.26575 0,-1.75394 0.647638,-3.26575 1.96063,-4.53543 1.82677,-1.76969 4.53543,-2.65354 8.12992,-2.65354 2.85433,0 5.01575,0.527559 6.47638,1.5689 1.4626,1.04921 2.38976,2.46063 2.7815,4.24409l-5.54134 0.962598c-0.291339,-0.812992 -0.76378,-1.41929 -1.41929,-1.8189 -0.891732,-0.541339 -1.96063,-0.818898 -3.21654,-0.818898 -1.25591,0 -2.15354,0.212598 -2.71063,0.625984 -0.549213,0.42126 -0.818898,0.899606 -0.818898,1.44882 0,0.557087 0.277559,1.01181 0.832677,1.37598 0.350394,0.222441 1.47047,0.614173 3.36811,1.16929 2.92323,0.850394 4.87795,1.68504 5.86811,2.51181 1.39173,1.15551 2.09055,2.54528 2.09055,4.17126 0,2.10433 -0.883858,3.9311 -2.65354,5.47835 -1.76772,1.54724 -4.26378,2.31693 -7.48031,2.31693 -3.20276,0 -5.68504,-0.584646 -7.43307,-1.75984 -1.74606,-1.17717 -2.9311,-2.83268 -3.55906,-4.96457z"/>
   <path id="_8559538412345678910111213141516171819202122232425262728" class="fil2" d="M1401.54 547.909l5.99803 0 -1.13386 5.43504 -5.99213 0 1.12795 -5.43504zm-1.75591 8.44488l5.99213 0 -4.63583 22.189 -5.99803 0 4.64173 -22.189z"/>
   <path id="_855953841234567891011121314151617181920212223242526272829" class="fil2" d="M1415.49 562.638l-5.85433 -0.498031c0.669291,-1.97638 1.83858,-3.52362 3.50197,-4.63583 1.66732,-1.11417 3.87205,-1.67717 6.61024,-1.67717 2.86024,0 4.97244,0.57874 6.33465,1.72638 1.36811,1.14764 2.04724,2.55315 2.04724,4.20866 0,0.669291 -0.0570866,1.38386 -0.179134,2.13189 -0.114173,0.755906 -0.527559,2.73228 -1.24213,5.93307 -0.584646,2.64764 -0.875984,4.50197 -0.875984,5.56496 0,0.940945 0.163386,1.99606 0.498031,3.15157l-5.82677 0c-0.234252,-0.805118 -0.383858,-1.63976 -0.440945,-2.50984 -0.877953,0.976378 -1.88386,1.72441 -3.02559,2.24606 -1.14764,0.527559 -2.29528,0.783465 -3.45079,0.783465 -1.84055,0 -3.36024,-0.598425 -4.55709,-1.80315 -1.19094,-1.20472 -1.79134,-2.75394 -1.79134,-4.64961 0,-2.12008 0.65748,-3.80906 1.9685,-5.07874 1.32087,-1.26969 3.67323,-2.03346 7.05512,-2.29724 2.85827,-0.234252 4.76378,-0.519685 5.72638,-0.856299 0.25,-0.840551 0.377953,-1.50394 0.377953,-2.00984 0,-0.635827 -0.26378,-1.17717 -0.777559,-1.6063 -0.51378,-0.435039 -1.27559,-0.647638 -2.29724,-0.647638 -1.0689,0 -1.91732,0.220472 -2.5374,0.655512 -0.622047,0.442913 -1.04134,1.06299 -1.26378,1.86811zm5.70669 5.56299c-0.364173,0.0944882 -0.848425,0.187008 -1.44882,0.271654 -3.00197,0.364173 -4.97047,0.891732 -5.88976,1.59055 -0.65748,0.5 -0.978346,1.17717 -0.978346,2.02559 0,0.690945 0.25,1.28346 0.75,1.76181 0.498031,0.484252 1.16142,0.720472 1.98228,0.720472 0.905512,0 1.76181,-0.214567 2.56102,-0.655512 0.805118,-0.435039 1.40354,-1.00591 1.79724,-1.69094 0.399606,-0.692913 0.748031,-1.76969 1.05512,-3.23031l0.17126 -0.793307z"/>
   <path id="_85595384123456789101112131415161718192021222324252627282930" class="fil2" d="M1430.06 572.339l5.80709 -0.92126c0.519685,1.22835 1.15354,2.09055 1.9252,2.60433 0.761811,0.505906 1.81102,0.76378 3.12992,0.76378 1.37008,0 2.46063,-0.307087 3.2815,-0.92126 0.570866,-0.42126 0.856299,-0.927165 0.856299,-1.52559 0,-0.40748 -0.143701,-0.769685 -0.435039,-1.08465 -0.307087,-0.307087 -1.13386,-0.685039 -2.49016,-1.13386 -3.62205,-1.19882 -5.8622,-2.13976 -6.72441,-2.83858 -1.3563,-1.08465 -2.02559,-2.50984 -2.02559,-4.26575 0,-1.75394 0.647638,-3.26575 1.96063,-4.53543 1.82677,-1.76969 4.53543,-2.65354 8.12992,-2.65354 2.85433,0 5.01575,0.527559 6.47638,1.5689 1.4626,1.04921 2.38976,2.46063 2.7815,4.24409l-5.54134 0.962598c-0.291339,-0.812992 -0.76378,-1.41929 -1.41929,-1.8189 -0.891732,-0.541339 -1.96063,-0.818898 -3.21654,-0.818898 -1.25591,0 -2.15354,0.212598 -2.71063,0.625984 -0.549213,0.42126 -0.818898,0.899606 -0.818898,1.44882 0,0.557087 0.277559,1.01181 0.832677,1.37598 0.350394,0.222441 1.47047,0.614173 3.36811,1.16929 2.92323,0.850394 4.87795,1.68504 5.86811,2.51181 1.39173,1.15551 2.09055,2.54528 2.09055,4.17126 0,2.10433 -0.883858,3.9311 -2.65354,5.47835 -1.76772,1.54724 -4.26378,2.31693 -7.48031,2.31693 -3.20276,0 -5.68504,-0.584646 -7.43307,-1.75984 -1.74606,-1.17717 -2.9311,-2.83268 -3.55906,-4.96457z"/>
   <path id="_8559538412345678910111213141516171819202122232425262728293031" class="fil2" d="M1456.14 560.805l0.919291 -4.45079 2.9252 0 0.734252 -3.55118 6.87598 -4.13583 -1.6122 7.68701 3.65945 0 -0.92126 4.45079 -3.67913 0 -1.94094 9.29331c-0.348425,1.69094 -0.519685,2.64567 -0.519685,2.88976 0,0.454724 0.141732,0.812992 0.435039,1.07677 0.291339,0.255906 0.818898,0.383858 1.59055,0.383858 0.26378,0 0.927165,-0.0492126 1.98228,-0.149606l-0.940945 4.45079c-1.02756,0.214567 -2.09055,0.312992 -3.1752,0.312992 -2.11811,0 -3.65748,-0.405512 -4.62008,-1.2185 -0.956693,-0.812992 -1.44094,-1.94685 -1.44094,-3.39567 0,-0.685039 0.255906,-2.25984 0.777559,-4.72047l1.85433 -8.92323 -2.90354 0z"/>
   <path id="_855953841234567891011121314151617181920212223242526272829303132" class="fil2" d="M1468.11 572.339l5.80709 -0.92126c0.519685,1.22835 1.15354,2.09055 1.9252,2.60433 0.761811,0.505906 1.81102,0.76378 3.12992,0.76378 1.37008,0 2.46063,-0.307087 3.2815,-0.92126 0.570866,-0.42126 0.856299,-0.927165 0.856299,-1.52559 0,-0.40748 -0.143701,-0.769685 -0.435039,-1.08465 -0.307087,-0.307087 -1.13386,-0.685039 -2.49016,-1.13386 -3.62205,-1.19882 -5.8622,-2.13976 -6.72441,-2.83858 -1.3563,-1.08465 -2.02559,-2.50984 -2.02559,-4.26575 0,-1.75394 0.647638,-3.26575 1.96063,-4.53543 1.82677,-1.76969 4.53543,-2.65354 8.12992,-2.65354 2.85433,0 5.01575,0.527559 6.47638,1.5689 1.4626,1.04921 2.38976,2.46063 2.7815,4.24409l-5.54134 0.962598c-0.291339,-0.812992 -0.76378,-1.41929 -1.41929,-1.8189 -0.891732,-0.541339 -1.96063,-0.818898 -3.21654,-0.818898 -1.25591,0 -2.15354,0.212598 -2.71063,0.625984 -0.549213,0.42126 -0.818898,0.899606 -0.818898,1.44882 0,0.557087 0.277559,1.01181 0.832677,1.37598 0.350394,0.222441 1.47047,0.614173 3.36811,1.16929 2.92323,0.850394 4.87795,1.68504 5.86811,2.51181 1.39173,1.15551 2.09055,2.54528 2.09055,4.17126 0,2.10433 -0.883858,3.9311 -2.65354,5.47835 -1.76772,1.54724 -4.26378,2.31693 -7.48031,2.31693 -3.20276,0 -5.68504,-0.584646 -7.43307,-1.75984 -1.74606,-1.17717 -2.9311,-2.83268 -3.55906,-4.96457z"/>
   <polygon id="_85595384123456789101112131415161718192021222324252627282930313233" class="fil2" points="1494.06,572.752 1500,572.752 1498.79,578.543 1492.85,578.543 "/>
  </g>
 </g>
</svg>
